# xmcd
#
# Track frame offsets:
#	150
#	15892
#	29865
#	41710
#	54660
#	71412
#	81074
#	97004
#	111344
#	129885
#
# Disc length: 2144 seconds
#
# Revision: 1
# Processed by: cddbd v1.5.2PL0 Copyright (c) Steve Scherf et al.
# Submitted via: audiograbber 1.83.01
#
DISCID=80085e0a
DTITLE=Irma Thomas - Live 1976 At The New Orleans Jazz and Heritage Festival
DYEAR=2011
DGENRE=Soul
TTITLE0=You Can Have My Husband (live)
TTITLE1=Cry On (live)
TTITLE2=I Won't Cry (live)
TTITLE3=Ruler Of My Heart (live)
TTITLE4=I Done Got Over (live)
TTITLE5=It's Raining (live)
TTITLE6=Shame Shame Shame (live)
TTITLE7=Hip Shakin' Mama (live)
TTITLE8=Lady Marmalade (live)
TTITLE9=Wish Someone Would Care (live)
EXTD=
EXTT0=
EXTT1=
EXTT2=
EXTT3=
EXTT4=
EXTT5=
EXTT6=
EXTT7=
EXTT8=
EXTT9=
PLAYORDER=
